M48
; DRILL file {KiCad (6.0.6)} date Mon Jul 18 11:09:23 2022
; FORMAT={-:-/ absolute / metric / decimal}
; #@! TF.CreationDate,2022-07-18T11:09:23-04:00
; #@! TF.GenerationSoftware,Kicad,Pcbnew,(6.0.6)
; #@! TF.FileFunction,MixedPlating,1,2
FMAT,2
METRIC
; #@! TA.AperFunction,Plated,PTH,ComponentDrill
T1C1.000
; #@! TA.AperFunction,Plated,PTH,ComponentDrill
T2C1.020
%
G90
G05
T1
X151.9Y-103.96
X151.9Y-106.5
X154.44Y-103.96
X154.44Y-106.5
X156.98Y-103.96
X156.98Y-106.5
T2
X146.21Y-44.07
X146.21Y-46.61
X146.21Y-49.15
X146.21Y-51.69
X146.21Y-54.23
X146.21Y-56.77
X146.21Y-59.31
X146.21Y-61.85
X146.21Y-64.39
X146.21Y-66.93
X146.21Y-69.47
X146.21Y-72.01
X146.21Y-74.55
X146.21Y-77.09
X146.21Y-79.63
X146.21Y-82.17
X146.21Y-84.71
X146.21Y-87.25
X146.21Y-89.79
X146.21Y-92.33
X163.99Y-44.07
X163.99Y-46.61
X163.99Y-49.15
X163.99Y-51.69
X163.99Y-54.23
X163.99Y-56.77
X163.99Y-59.31
X163.99Y-61.85
X163.99Y-64.39
X163.99Y-66.93
X163.99Y-69.47
X163.99Y-72.01
X163.99Y-74.55
X163.99Y-77.09
X163.99Y-79.63
X163.99Y-82.17
X163.99Y-84.71
X163.99Y-87.25
X163.99Y-89.79
X163.99Y-92.33
T0
M30
