%TF.GenerationSoftware,KiCad,Pcbnew,(6.0.6)*%
%TF.CreationDate,2022-07-18T11:09:20-04:00*%
%TF.ProjectId,picoprobe,7069636f-7072-46f6-9265-2e6b69636164,rev?*%
%TF.SameCoordinates,Original*%
%TF.FileFunction,Copper,L1,Top*%
%TF.FilePolarity,Positive*%
%FSLAX46Y46*%
G04 Gerber Fmt 4.6, Leading zero omitted, Abs format (unit mm)*
G04 Created by KiCad (PCBNEW (6.0.6)) date 2022-07-18 11:09:20*
%MOMM*%
%LPD*%
G01*
G04 APERTURE LIST*
G04 Aperture macros list*
%AMRoundRect*
0 Rectangle with rounded corners*
0 $1 Rounding radius*
0 $2 $3 $4 $5 $6 $7 $8 $9 X,Y pos of 4 corners*
0 Add a 4 corners polygon primitive as box body*
4,1,4,$2,$3,$4,$5,$6,$7,$8,$9,$2,$3,0*
0 Add four circle primitives for the rounded corners*
1,1,$1+$1,$2,$3*
1,1,$1+$1,$4,$5*
1,1,$1+$1,$6,$7*
1,1,$1+$1,$8,$9*
0 Add four rect primitives between the rounded corners*
20,1,$1+$1,$2,$3,$4,$5,0*
20,1,$1+$1,$4,$5,$6,$7,0*
20,1,$1+$1,$6,$7,$8,$9,0*
20,1,$1+$1,$8,$9,$2,$3,0*%
G04 Aperture macros list end*
%TA.AperFunction,ComponentPad*%
%ADD10O,1.700000X1.700000*%
%TD*%
%TA.AperFunction,SMDPad,CuDef*%
%ADD11R,3.500000X1.700000*%
%TD*%
%TA.AperFunction,ComponentPad*%
%ADD12R,1.700000X1.700000*%
%TD*%
%TA.AperFunction,ComponentPad*%
%ADD13RoundRect,0.250000X0.600000X-1.100000X0.600000X1.100000X-0.600000X1.100000X-0.600000X-1.100000X0*%
%TD*%
%TA.AperFunction,ComponentPad*%
%ADD14O,1.700000X2.700000*%
%TD*%
%TA.AperFunction,Conductor*%
%ADD15C,0.500000*%
%TD*%
G04 APERTURE END LIST*
D10*
%TO.P,U1,40,VBUS*%
%TO.N,unconnected-(U1-Pad40)*%
X163990000Y-44070000D03*
D11*
X164890000Y-44070000D03*
D10*
%TO.P,U1,39,VSYS*%
%TO.N,Net-(J1-Pad6)*%
X163990000Y-46610000D03*
D11*
X164890000Y-46610000D03*
D12*
%TO.P,U1,38,GND*%
%TO.N,Net-(J1-Pad5)*%
X163990000Y-49150000D03*
D11*
X164890000Y-49150000D03*
%TO.P,U1,37,3V3_EN*%
%TO.N,unconnected-(U1-Pad37)*%
X164890000Y-51690000D03*
D10*
X163990000Y-51690000D03*
D11*
%TO.P,U1,36,3V3*%
%TO.N,unconnected-(U1-Pad36)*%
X164890000Y-54230000D03*
D10*
X163990000Y-54230000D03*
D11*
%TO.P,U1,35,ADC_VREF*%
%TO.N,unconnected-(U1-Pad35)*%
X164890000Y-56770000D03*
D10*
X163990000Y-56770000D03*
%TO.P,U1,34,GPIO28_ADC2*%
%TO.N,unconnected-(U1-Pad34)*%
X163990000Y-59310000D03*
D11*
X164890000Y-59310000D03*
D12*
%TO.P,U1,33,AGND*%
%TO.N,unconnected-(U1-Pad33)*%
X163990000Y-61850000D03*
D11*
X164890000Y-61850000D03*
D10*
%TO.P,U1,32,GPIO27_ADC1*%
%TO.N,unconnected-(U1-Pad32)*%
X163990000Y-64390000D03*
D11*
X164890000Y-64390000D03*
D10*
%TO.P,U1,31,GPIO26_ADC0*%
%TO.N,unconnected-(U1-Pad31)*%
X163990000Y-66930000D03*
D11*
X164890000Y-66930000D03*
%TO.P,U1,30,RUN*%
%TO.N,unconnected-(U1-Pad30)*%
X164890000Y-69470000D03*
D10*
X163990000Y-69470000D03*
D11*
%TO.P,U1,29,GPIO22*%
%TO.N,unconnected-(U1-Pad29)*%
X164890000Y-72010000D03*
D10*
X163990000Y-72010000D03*
D12*
%TO.P,U1,28,GND*%
%TO.N,unconnected-(U1-Pad28)*%
X163990000Y-74550000D03*
D11*
X164890000Y-74550000D03*
D10*
%TO.P,U1,27,GPIO21*%
%TO.N,unconnected-(U1-Pad27)*%
X163990000Y-77090000D03*
D11*
X164890000Y-77090000D03*
D10*
%TO.P,U1,26,GPIO20*%
%TO.N,unconnected-(U1-Pad26)*%
X163990000Y-79630000D03*
D11*
X164890000Y-79630000D03*
%TO.P,U1,25,GPIO19*%
%TO.N,unconnected-(U1-Pad25)*%
X164890000Y-82170000D03*
D10*
X163990000Y-82170000D03*
D11*
%TO.P,U1,24,GPIO18*%
%TO.N,unconnected-(U1-Pad24)*%
X164890000Y-84710000D03*
D10*
X163990000Y-84710000D03*
D12*
%TO.P,U1,23,GND*%
%TO.N,unconnected-(U1-Pad23)*%
X163990000Y-87250000D03*
D11*
X164890000Y-87250000D03*
%TO.P,U1,22,GPIO17*%
%TO.N,unconnected-(U1-Pad22)*%
X164890000Y-89790000D03*
D10*
X163990000Y-89790000D03*
%TO.P,U1,21,GPIO16*%
%TO.N,unconnected-(U1-Pad21)*%
X163990000Y-92330000D03*
D11*
X164890000Y-92330000D03*
D10*
%TO.P,U1,20,GPIO15*%
%TO.N,unconnected-(U1-Pad20)*%
X146210000Y-92330000D03*
D11*
X145310000Y-92330000D03*
%TO.P,U1,19,GPIO14*%
%TO.N,unconnected-(U1-Pad19)*%
X145310000Y-89790000D03*
D10*
X146210000Y-89790000D03*
D12*
%TO.P,U1,18,GND*%
%TO.N,unconnected-(U1-Pad18)*%
X146210000Y-87250000D03*
D11*
X145310000Y-87250000D03*
%TO.P,U1,17,GPIO13*%
%TO.N,unconnected-(U1-Pad17)*%
X145310000Y-84710000D03*
D10*
X146210000Y-84710000D03*
D11*
%TO.P,U1,16,GPIO12*%
%TO.N,unconnected-(U1-Pad16)*%
X145310000Y-82170000D03*
D10*
X146210000Y-82170000D03*
%TO.P,U1,15,GPIO11*%
%TO.N,unconnected-(U1-Pad15)*%
X146210000Y-79630000D03*
D11*
X145310000Y-79630000D03*
%TO.P,U1,14,GPIO10*%
%TO.N,unconnected-(U1-Pad14)*%
X145310000Y-77090000D03*
D10*
X146210000Y-77090000D03*
D11*
%TO.P,U1,13,GND*%
%TO.N,unconnected-(U1-Pad13)*%
X145310000Y-74550000D03*
D12*
X146210000Y-74550000D03*
D11*
%TO.P,U1,12,GPIO9*%
%TO.N,unconnected-(U1-Pad12)*%
X145310000Y-72010000D03*
D10*
X146210000Y-72010000D03*
D11*
%TO.P,U1,11,GPIO8*%
%TO.N,unconnected-(U1-Pad11)*%
X145310000Y-69470000D03*
D10*
X146210000Y-69470000D03*
%TO.P,U1,10,GPIO7*%
%TO.N,unconnected-(U1-Pad10)*%
X146210000Y-66930000D03*
D11*
X145310000Y-66930000D03*
D10*
%TO.P,U1,9,GPIO6*%
%TO.N,unconnected-(U1-Pad9)*%
X146210000Y-64390000D03*
D11*
X145310000Y-64390000D03*
%TO.P,U1,8,GND*%
%TO.N,unconnected-(U1-Pad8)*%
X145310000Y-61850000D03*
D12*
X146210000Y-61850000D03*
D10*
%TO.P,U1,7,GPIO5*%
%TO.N,Net-(J1-Pad3)*%
X146210000Y-59310000D03*
D11*
X145310000Y-59310000D03*
D10*
%TO.P,U1,6,GPIO4*%
%TO.N,Net-(J1-Pad1)*%
X146210000Y-56770000D03*
D11*
X145310000Y-56770000D03*
D10*
%TO.P,U1,5,GPIO3*%
%TO.N,Net-(J1-Pad2)*%
X146210000Y-54230000D03*
D11*
X145310000Y-54230000D03*
%TO.P,U1,4,GPIO2*%
%TO.N,Net-(J1-Pad4)*%
X145310000Y-51690000D03*
D10*
X146210000Y-51690000D03*
D12*
%TO.P,U1,3,GND*%
%TO.N,unconnected-(U1-Pad3)*%
X146210000Y-49150000D03*
D11*
X145310000Y-49150000D03*
%TO.P,U1,2,GPIO1*%
%TO.N,unconnected-(U1-Pad2)*%
X145310000Y-46610000D03*
D10*
X146210000Y-46610000D03*
D11*
%TO.P,U1,1,GPIO0*%
%TO.N,unconnected-(U1-Pad1)*%
X145310000Y-44070000D03*
D10*
X146210000Y-44070000D03*
%TD*%
D13*
%TO.P,J1,1,Pin_1*%
%TO.N,Net-(J1-Pad1)*%
X151900000Y-107000000D03*
D14*
%TO.P,J1,2,Pin_2*%
%TO.N,Net-(J1-Pad2)*%
X151900000Y-103460000D03*
%TO.P,J1,3,Pin_3*%
%TO.N,Net-(J1-Pad3)*%
X154440000Y-107000000D03*
%TO.P,J1,4,Pin_4*%
%TO.N,Net-(J1-Pad4)*%
X154440000Y-103460000D03*
%TO.P,J1,5,Pin_5*%
%TO.N,Net-(J1-Pad5)*%
X156980000Y-107000000D03*
%TO.P,J1,6,Pin_6*%
%TO.N,Net-(J1-Pad6)*%
X156980000Y-103460000D03*
%TD*%
D15*
%TO.N,Net-(J1-Pad1)*%
X151645923Y-106400000D02*
X149800000Y-106400000D01*
X149800000Y-57500000D02*
X149070000Y-56770000D01*
X151900000Y-106500000D02*
X151745923Y-106500000D01*
X149800000Y-106400000D02*
X149800000Y-57500000D01*
X149070000Y-56770000D02*
X146210000Y-56770000D01*
X151745923Y-106500000D02*
X151645923Y-106400000D01*
%TO.N,Net-(J1-Pad2)*%
X146380000Y-54400000D02*
X146210000Y-54230000D01*
X151900000Y-55300000D02*
X151000000Y-54400000D01*
X151000000Y-54400000D02*
X146380000Y-54400000D01*
X151900000Y-103960000D02*
X151900000Y-55300000D01*
%TO.N,Net-(J1-Pad3)*%
X154440000Y-109860000D02*
X154400000Y-109900000D01*
X148495000Y-107395000D02*
X148495000Y-60100000D01*
X147705000Y-59310000D02*
X146210000Y-59310000D01*
X148495000Y-60100000D02*
X147705000Y-59310000D01*
X151000000Y-109900000D02*
X148495000Y-107395000D01*
X154400000Y-109900000D02*
X151000000Y-109900000D01*
X154440000Y-106500000D02*
X154440000Y-109860000D01*
%TO.N,Net-(J1-Pad4)*%
X154440000Y-103960000D02*
X154500000Y-103900000D01*
X154500000Y-103900000D02*
X154500000Y-52580000D01*
X153610000Y-51690000D02*
X146210000Y-51690000D01*
X154500000Y-52580000D02*
X153610000Y-51690000D01*
%TO.N,Net-(J1-Pad5)*%
X161950000Y-49150000D02*
X163990000Y-49150000D01*
X159300000Y-106500000D02*
X159900000Y-105900000D01*
X156980000Y-106500000D02*
X159300000Y-106500000D01*
X159900000Y-105900000D02*
X159900000Y-51200000D01*
X159900000Y-51200000D02*
X161950000Y-49150000D01*
%TO.N,Net-(J1-Pad6)*%
X156980000Y-50920000D02*
X161290000Y-46610000D01*
X156980000Y-103960000D02*
X156980000Y-50920000D01*
X161290000Y-46610000D02*
X163990000Y-46610000D01*
%TD*%
M02*
