M48
; DRILL file {KiCad (6.0.6)} date Fri Jul 22 11:57:41 2022
; FORMAT={-:-/ absolute / metric / decimal}
; #@! TF.CreationDate,2022-07-22T11:57:41-04:00
; #@! TF.GenerationSoftware,Kicad,Pcbnew,(6.0.6)
; #@! TF.FileFunction,MixedPlating,1,2
FMAT,2
METRIC
; #@! TA.AperFunction,Plated,PTH,ComponentDrill
T1C1.000
; #@! TA.AperFunction,Plated,PTH,ComponentDrill
T2C1.020
; #@! TA.AperFunction,NonPlated,NPTH,ComponentDrill
T3C1.500
; #@! TA.AperFunction,NonPlated,NPTH,ComponentDrill
T4C1.800
%
G90
G05
T1
X112.137Y-62.1
X112.137Y-64.64
X112.137Y-67.18
X112.137Y-69.72
X112.137Y-72.26
X112.137Y-74.8
X112.137Y-77.34
X112.137Y-79.88
X112.137Y-82.42
X112.137Y-84.96
X112.137Y-87.5
X112.137Y-90.04
X112.137Y-92.58
X112.137Y-95.12
X112.137Y-97.66
X112.137Y-100.2
X112.137Y-102.74
X112.137Y-105.28
X112.137Y-107.82
X112.137Y-110.36
X114.612Y-44.765
X114.612Y-47.305
X114.612Y-49.845
X117.152Y-44.765
X117.152Y-47.305
X117.152Y-49.845
X129.595Y-123.775
X132.135Y-123.775
X134.675Y-123.775
X151.762Y-62.04
X151.762Y-64.58
X151.762Y-67.12
X151.762Y-69.66
X151.762Y-72.2
X151.762Y-74.74
X151.762Y-77.28
X151.762Y-79.82
X151.762Y-82.36
X151.762Y-84.9
X151.762Y-87.44
X151.762Y-89.98
X151.762Y-92.52
X151.762Y-95.06
X151.762Y-97.6
X151.762Y-100.14
X151.762Y-102.68
X151.762Y-105.22
X151.762Y-107.76
X151.762Y-110.3
T2
X123.545Y-62.105
X123.545Y-64.645
X123.545Y-67.185
X123.545Y-69.725
X123.545Y-72.265
X123.545Y-74.805
X123.545Y-77.345
X123.545Y-79.885
X123.545Y-82.425
X123.545Y-84.965
X123.545Y-87.505
X123.545Y-90.045
X123.545Y-92.585
X123.545Y-95.125
X123.545Y-97.665
X123.545Y-100.205
X123.545Y-102.745
X123.545Y-105.285
X123.545Y-107.825
X123.545Y-110.365
X129.895Y-110.135
X132.435Y-110.135
X134.975Y-110.135
X141.325Y-62.105
X141.325Y-64.645
X141.325Y-67.185
X141.325Y-69.725
X141.325Y-72.265
X141.325Y-74.805
X141.325Y-77.345
X141.325Y-79.885
X141.325Y-82.425
X141.325Y-84.965
X141.325Y-87.505
X141.325Y-90.045
X141.325Y-92.585
X141.325Y-95.125
X141.325Y-97.665
X141.325Y-100.205
X141.325Y-102.745
X141.325Y-105.285
X141.325Y-107.825
X141.325Y-110.365
T3
X130.01Y-65.265
X134.86Y-65.265
T4
X129.71Y-62.235
X135.16Y-62.235
T0
M30
